<svg width="123" height="30" xmlns="http://www.w3.org/2000/svg"><g id="01_Übersichtseite_Arbeitswelten" stroke="none" stroke-width="1" fill="none" fill-rule="evenodd"><g id="Desktop-HD-1440+-//-Uebersicht-Arbeitswelten_Referenz_activ" transform="translate(-666 -28)" fill="#2F89BE"><g id="02_Sub_Navigation"><g id="L/Monecules/Functional/Header-default"><g id="Group"><g id="LOGO" transform="translate(666 28)"><path d="M55.8 0h-.008A14.965 14.965 0 0045.19 4.393 14.968 14.968 0 0040.796 15c0 4.134 1.683 7.9 4.393 10.607A14.965 14.965 0 0055.791 30h.01c4.131 0 7.897-1.684 10.601-4.393A14.964 14.964 0 0070.796 15a14.962 14.962 0 00-4.394-10.607A14.964 14.964 0 0055.801 0m-9.49 15a9.44 9.44 0 012.778-6.707 9.44 9.44 0 016.707-2.778 9.443 9.443 0 016.707 2.778A9.444 9.444 0 0165.281 15a9.443 9.443 0 01-2.778 6.707 9.443 9.443 0 01-6.707 2.778 9.44 9.44 0 01-6.707-2.778A9.44 9.44 0 0146.311 15" id="Fill-1"/><path id="Fill-3" d="M39.796 1.224h-5.52l.015 11.711H22.483V1.23H0v4.868l5.461.011V30h5.699l-.004-23.903h5.703l.003 23.88 5.563-.009V17.534l11.57-.02.004 12.46h5.797z"/><path id="Fill-5" d="M77.54 1H72v28.776l5.466-.01-.005-20.395 14.044 20.347 14.643-.01v-5.131h-9.13l.003-7.105h9.127v-4.737l-9.168-.001.009-6.86 14.53.002v23.842h5.405l.022-23.802 5.258.003V1.01H91.28v19.756z"/></g></g></g></g></g></g></svg>